<svg width="48" height="48" viewBox="0 0 48 48" fill="none" xmlns="http://www.w3.org/2000/svg">
    <path d="M42.6415 13.2189C41.421 11.1173 26.4385 2.43762 23.9985 2.43762C21.5592 2.43762 6.5708 11.0955 5.3572 13.2189C4.14342 15.3422 4.13667 32.6587 5.3572 34.7822C6.57764 36.9046 21.5609 45.5624 23.9985 45.5624C26.436 45.5624 41.421 36.8937 42.6407 34.7813C43.8601 32.6688 43.861 15.3204 42.6415 13.2189ZM29.0495 37.3266C28.7159 37.3266 25.6036 34.3137 25.8488 34.0677C25.922 33.9945 26.3761 33.9431 27.327 33.9135C27.327 31.7044 27.3767 28.1365 27.4062 26.6429C27.4097 26.4729 27.3691 26.3541 27.3691 26.1502H20.6368C20.6368 26.7482 20.5981 29.1992 20.7523 32.2888C20.7715 32.6712 20.6191 32.7907 20.2687 32.789C19.4154 32.7866 18.5614 32.7797 17.7074 32.7823C17.3621 32.7832 17.2129 32.6535 17.2239 32.2678C17.3013 29.4513 17.4733 25.1908 17.2113 14.355V14.0879C16.3968 14.0585 15.8316 14.0071 15.7575 13.9331C15.5115 13.6871 18.6667 10.6743 18.9994 10.6743C19.333 10.6743 22.4671 13.6879 22.2228 13.9331C22.1495 14.0063 21.5574 14.0585 20.8103 14.0879V14.3542C20.6065 16.5231 20.6394 21.0579 20.5889 23.231H27.3489C27.3489 22.8477 27.3818 20.3049 27.2479 16.1862C27.2394 15.9005 27.3279 15.7506 27.6024 15.7482C28.5347 15.7414 29.468 15.7372 30.4013 15.743C30.6927 15.7448 30.7861 15.8879 30.7803 16.1962C30.4728 32.3081 30.7246 31.1837 30.7246 33.9126C31.4718 33.9421 32.1414 33.9936 32.2148 34.0677C32.4574 34.3129 29.3831 37.3266 29.0495 37.3266Z" fill="white"/>
</svg>
