<svg width="53" height="53" viewBox="0 0 53 53" fill="none" xmlns="http://www.w3.org/2000/svg">
    <path d="M47.0834 14.5958C45.7357 12.2753 29.1926 2.69153 26.4984 2.69153C23.805 2.69153 7.25532 12.2513 5.91531 14.5958C4.57509 16.9404 4.56764 36.0606 5.91531 38.4054C7.26287 40.7488 23.8068 50.3085 26.4984 50.3085C29.1898 50.3085 45.7358 40.7368 47.0825 38.4043C48.429 36.0718 48.4299 16.9162 47.0834 14.5958ZM32.0756 41.2148C31.7072 41.2148 28.2708 37.8881 28.5414 37.6164C28.6223 37.5356 29.1237 37.4789 30.1737 37.4462C30.1737 35.0069 30.2285 31.0673 30.261 29.4182C30.265 29.2305 30.2202 29.0993 30.2202 28.8741H22.7865C22.7865 29.5345 22.7438 32.2408 22.914 35.6522C22.9352 36.0744 22.767 36.2064 22.3801 36.2045C21.4379 36.2019 20.495 36.1943 19.5519 36.1972C19.1707 36.1981 19.006 36.0549 19.0181 35.6291C19.1036 32.5191 19.2935 27.8149 19.0042 15.8503V15.5554C18.1049 15.5229 17.4808 15.4662 17.3989 15.3844C17.1273 15.1128 20.6112 11.7862 20.9786 11.7862C21.3469 11.7862 24.8075 15.1137 24.5378 15.3844C24.4568 15.4653 23.803 15.5229 22.9781 15.5554V15.8494C22.7531 18.2442 22.7894 23.2514 22.7336 25.6509H30.1978C30.1978 25.2276 30.2341 22.42 30.0863 17.8722C30.0769 17.5568 30.1746 17.3913 30.4777 17.3886C31.5072 17.3811 32.5377 17.3765 33.5682 17.3829C33.8899 17.3848 33.9931 17.5429 33.9867 17.8833C33.6471 35.6736 33.9252 34.432 33.9252 37.4451C34.7502 37.4777 35.4895 37.5346 35.5706 37.6165C35.8385 37.8872 32.4439 41.2148 32.0756 41.2148Z" fill="white"/>
</svg>
