<svg width="73" height="73" viewBox="0 0 73 73" fill="none" xmlns="http://www.w3.org/2000/svg">
    <path d="M64.8507 20.1036C62.9944 16.9075 40.2086 3.70715 36.4977 3.70715C32.788 3.70715 9.99315 16.8744 8.14748 20.1036C6.30152 23.3329 6.29125 49.6684 8.14748 52.8979C10.0036 56.1257 32.7905 69.2928 36.4977 69.2928C40.2047 69.2928 62.9946 56.1092 64.8495 52.8965C66.704 49.6837 66.7053 23.2997 64.8507 20.1036ZM44.1795 56.7675C43.6721 56.7675 38.9389 52.1854 39.3118 51.8112C39.4231 51.6999 40.1138 51.6218 41.56 51.5768C41.56 48.217 41.6355 42.7908 41.6803 40.5194C41.6857 40.2608 41.624 40.0801 41.624 39.77H31.3851C31.3851 40.6795 31.3264 44.4071 31.5608 49.1059C31.59 49.6873 31.3583 49.8691 30.8254 49.8665C29.5276 49.863 28.2289 49.8524 26.93 49.8564C26.4049 49.8577 26.1781 49.6605 26.1947 49.0739C26.3125 44.7905 26.574 38.311 26.1756 21.8315V21.4253C24.9369 21.3806 24.0773 21.3024 23.9645 21.1898C23.5904 20.8157 28.389 16.2338 28.895 16.2338C29.4023 16.2338 34.1688 20.817 33.7973 21.1898C33.6858 21.3012 32.7853 21.3806 31.6491 21.4253V21.8303C31.3391 25.1288 31.3891 32.0254 31.3123 35.3304H41.5932C41.5932 34.7474 41.6432 30.8803 41.4396 24.6164C41.4266 24.1819 41.5612 23.954 41.9787 23.9503C43.3966 23.94 44.816 23.9336 46.2354 23.9424C46.6785 23.9451 46.8207 24.1628 46.8118 24.6316C46.3442 49.1353 46.7271 47.4252 46.7271 51.5753C47.8635 51.6202 48.8818 51.6985 48.9934 51.8113C49.3624 52.1841 44.6868 56.7675 44.1795 56.7675Z" fill="white"/>
</svg>
