<svg width="44" height="48" viewBox="0 0 44 48" fill="none" xmlns="http://www.w3.org/2000/svg">
    <path d="M42.9715 12.0001C41.5984 9.66088 24.7433 0 21.9982 0C19.2541 0 2.39225 9.63667 1.02697 12.0001C-0.338524 14.3634 -0.346118 33.6375 1.02697 36.0011C2.39995 38.3634 19.256 48 21.9982 48C24.7404 48 41.5985 38.3513 42.9707 36.0001C44.3425 33.6488 44.3434 14.3391 42.9715 12.0001ZM27.6806 38.8331C27.3053 38.8331 23.8041 35.4797 24.0799 35.2058C24.1622 35.1244 24.6731 35.0672 25.7429 35.0342C25.7429 32.5753 25.7988 28.6041 25.8319 26.9417C25.8359 26.7524 25.7902 26.6202 25.7902 26.3932H18.2164C18.2164 27.0589 18.1729 29.7869 18.3463 33.2258C18.3679 33.6514 18.1965 33.7844 17.8023 33.7825C16.8423 33.7799 15.8816 33.7722 14.9208 33.7751C14.5324 33.7761 14.3646 33.6318 14.3769 33.2025C14.464 30.0675 14.6575 25.3254 14.3628 13.2646V12.9674C13.4465 12.9346 12.8106 12.8774 12.7272 12.795C12.4504 12.5212 16.0001 9.16783 16.3744 9.16783C16.7496 9.16783 20.2755 12.5221 20.0007 12.795C19.9182 12.8765 19.2521 12.9346 18.4116 12.9674V13.2637C18.1823 15.6778 18.2193 20.7252 18.1625 23.144H25.7675C25.7675 22.7173 25.8045 19.8871 25.6539 15.3028C25.6443 14.9848 25.7438 14.818 26.0526 14.8153C27.1015 14.8078 28.1515 14.8031 29.2014 14.8095C29.5292 14.8115 29.6343 14.9708 29.6278 15.3139C29.2819 33.2473 29.5652 31.9958 29.5652 35.0332C30.4057 35.066 31.159 35.1233 31.2416 35.2059C31.5145 35.4787 28.0559 38.8331 27.6806 38.8331Z" fill="white"/>
</svg>
