<svg width="48" height="48" viewBox="0 0 48 48" fill="none" xmlns="http://www.w3.org/2000/svg">
    <path d="M10.0383 30.3073C10.0344 31.2984 9.73667 32.266 9.18277 33.0882C8.62887 33.9103 7.84361 34.55 6.92614 34.9266C6.00866 35.3031 5.00011 35.3996 4.0278 35.2038C3.05549 35.0081 2.16302 34.5289 1.46307 33.8267C0.763111 33.1245 0.287055 32.2308 0.0949973 31.2585C-0.09706 30.2862 0.00349357 29.2788 0.383962 28.3636C0.76443 27.4483 1.40775 26.6662 2.23272 26.116C3.05768 25.5658 4.02729 25.2721 5.01914 25.2721H10.0383V30.3073ZM12.5678 42.8653C12.7524 44.0525 13.3558 45.1346 14.2689 45.9162C15.1821 46.6978 16.3448 47.1274 17.5472 47.1274C18.7495 47.1274 19.9123 46.6978 20.8254 45.9162C21.7385 45.1346 22.3419 44.0525 22.5265 42.8653V30.3073C22.6382 29.5893 22.593 28.8557 22.3941 28.1568C22.1951 27.4579 21.8472 26.8103 21.3741 26.2585C20.9011 25.7067 20.3141 25.2637 19.6535 24.96C18.9929 24.6563 18.2743 24.499 17.5472 24.499C16.82 24.499 16.1015 24.6563 15.4409 24.96C14.7803 25.2637 14.1933 25.7067 13.7202 26.2585C13.2471 26.8103 12.8992 27.4579 12.7003 28.1568C12.5014 28.8557 12.4562 29.5893 12.5678 30.3073V42.8653ZM22.5265 10.1468V5.13151C22.5458 4.12414 22.2622 3.13415 21.7124 2.28957C21.1625 1.44498 20.3718 0.784649 19.4423 0.393956C18.5129 0.00326412 17.4875 -0.0998161 16.4988 0.0980456C15.5101 0.295907 14.6035 0.785609 13.8963 1.50383C13.1891 2.22205 12.7138 3.13575 12.5319 4.12677C12.35 5.11779 12.4698 6.14056 12.8759 7.06281C13.2819 7.98506 13.9556 8.76437 14.8096 9.29997C15.6637 9.83557 16.659 10.1028 17.6667 10.0672L22.5265 10.1468ZM4.91956 12.6743C3.73145 12.8588 2.64851 13.4616 1.8663 14.3741C1.08409 15.2865 0.654167 16.4483 0.654167 17.6497C0.654167 18.8512 1.08409 20.013 1.8663 20.9254C2.64851 21.8378 3.73145 22.4407 4.91956 22.6252H17.4874C18.206 22.7368 18.9402 22.6916 19.6396 22.4928C20.339 22.2941 20.9871 21.9464 21.5394 21.4737C22.0916 21.001 22.5349 20.4145 22.8389 19.7544C23.1428 19.0943 23.3002 18.3763 23.3002 17.6497C23.3002 16.9231 23.1428 16.2052 22.8389 15.5451C22.5349 14.885 22.0916 14.2985 21.5394 13.8258C20.9871 13.3531 20.339 13.0054 19.6396 12.8066C18.9402 12.6079 18.206 12.5627 17.4874 12.6743H4.91956ZM37.6637 22.6252H42.6829C43.6938 22.681 44.698 22.4313 45.5648 21.9085C46.4315 21.3858 47.1206 20.6143 47.5422 19.6946C47.9639 18.7749 48.0984 17.7496 47.9285 16.7523C47.7585 15.7551 47.2918 14.8321 46.5893 14.1037C45.8868 13.3753 44.981 12.8752 43.9899 12.6687C42.9988 12.4621 41.9685 12.5586 41.0331 12.9456C40.0977 13.3326 39.3007 13.9922 38.7459 14.8384C38.191 15.6846 37.9042 16.6781 37.9226 17.6896L37.6637 22.6252ZM35.1342 5.032C35.0537 3.7539 34.4888 2.55448 33.5545 1.67785C32.6202 0.801219 31.3867 0.313249 30.1051 0.313249C28.8234 0.313249 27.59 0.801219 26.6557 1.67785C25.7214 2.55448 25.1565 3.7539 25.0759 5.032V17.59C25.0327 18.2766 25.1307 18.9647 25.3638 19.6119C25.597 20.2591 25.9604 20.8517 26.4316 21.3532C26.9029 21.8546 27.472 22.2543 28.1038 22.5275C28.7355 22.8007 29.4167 22.9416 30.1051 22.9416C30.7935 22.9416 31.4746 22.8007 32.1064 22.5275C32.7382 22.2543 33.3073 21.8546 33.7785 21.3532C34.2497 20.8517 34.6132 20.2591 34.8463 19.6119C35.0795 18.9647 35.1775 18.2766 35.1342 17.59V5.032ZM25.2552 37.9297V42.9449C25.2513 43.9416 25.5434 44.9171 26.0947 45.7477C26.646 46.5784 27.4317 47.2268 28.3521 47.611C29.2725 47.9951 30.2863 48.0977 31.2651 47.9057C32.2439 47.7136 33.1436 47.2357 33.8504 46.5323C34.5571 45.8289 35.039 44.9318 35.2351 43.9545C35.4311 42.9772 35.3325 41.9638 34.9517 41.0426C34.5709 40.1214 33.925 39.3338 33.0959 38.7797C32.2668 38.2255 31.2918 37.9297 30.2943 37.9297H25.2552ZM42.8622 35.4022C44.1413 35.3217 45.3416 34.7572 46.2189 33.8237C47.0963 32.8901 47.5846 31.6576 47.5846 30.3769C47.5846 29.0963 47.0963 27.8638 46.2189 26.9302C45.3416 25.9967 44.1413 25.4322 42.8622 25.3517H30.2943C29.6072 25.3085 28.9186 25.4064 28.2709 25.6394C27.6232 25.8724 27.0301 26.2355 26.5282 26.7064C26.0264 27.1773 25.6264 27.7459 25.353 28.3772C25.0796 29.0085 24.9385 29.6891 24.9385 30.3769C24.9385 31.0648 25.0796 31.7454 25.353 32.3767C25.6264 33.008 26.0264 33.5766 26.5282 34.0475C27.0301 34.5184 27.6232 34.8815 28.2709 35.1145C28.9186 35.3475 29.6072 35.4454 30.2943 35.4022H42.8622Z" fill="white"/>
</svg>
